<svg width="66" height="70" viewBox="0 0 66 70" fill="none" xmlns="http://www.w3.org/2000/svg">
<path d="M64.9415 31.5761L34.3359 1.50241C33.4834 0.664561 32.1298 0.664561 31.2773 1.50241L0.671571 31.5761C-0.745821 32.9688 0.230327 35.4114 2.20079 35.4114H9.87973V65.597C9.87973 66.8296 10.8641 67.8289 12.0785 67.8289H23.4376V44.8589C23.4376 43.6263 24.422 42.627 25.6363 42.627H39.9767C41.1909 42.627 42.1755 43.6262 42.1755 44.8589V67.8288H53.5346C54.7488 67.8288 55.7333 66.8296 55.7333 65.5969V35.4116H63.4122C65.3845 35.4116 66.3574 32.9675 64.9415 31.5761Z" fill="#098C8C"/>
<rect x="19.7178" y="39.9458" width="26.7318" height="27.8881" fill="#098C8C"/>
<path d="M32.8067 32.3486C25.8328 32.3486 20.1592 38.1403 20.1592 45.2591C20.1592 54.0938 31.4775 67.0637 31.9593 67.6115C32.412 68.1261 33.2022 68.1252 33.654 67.6115C34.1359 67.0637 45.4542 54.0938 45.4542 45.2591C45.4541 38.1403 39.7805 32.3486 32.8067 32.3486ZM32.8067 51.7547C29.298 51.7547 26.4435 48.8408 26.4435 45.2591C26.4435 41.6774 29.298 38.7636 32.8067 38.7636C36.3153 38.7636 39.1698 41.6775 39.1698 45.2592C39.1698 48.8409 36.3153 51.7547 32.8067 51.7547Z" fill="white"/>
<ellipse cx="33.0981" cy="45.3959" rx="6.86858" ry="6.97204" fill="#098C8C"/>
</svg>
